<?xml version="1.0" standalone="no"?>
<!DOCTYPE svg PUBLIC "-//W3C//DTD SVG 1.1//EN"
"http://www.w3.org/Graphics/SVG/1.1/DTD/svg11.dtd">

<svg width="358" height="213" view_box="0 0 358 213"
xmlns="http://www.w3.org/2000/svg"
xmlns:link="http://www.w3.org/1999/xlink">\n\n<desc>Généré par Mocodo 2.3.5 le Wed, 29 Mar 2017 02:48:24</desc>

<rect id="frame" x="0" y="0" width="358" height="213" fill="#ffffbf" stroke="none" stroke-width="0"/>

<!-- Association INTERPRETER -->
<line x1="56" y1="170" x2="187" y2="170" stroke="#f46d43" stroke-width="2"/>
<text x="103" y="187.0" fill="#4575b4" font-family="Verdana" font-size="12">1,N</text>
<line x1="56" y1="60" x2="187" y2="170" stroke="#f46d43" stroke-width="2"/>
<text x="108" y="97.6685772511" fill="#4575b4" font-family="Verdana" font-size="12">1,1</text>
<g id="association-INTERPRETER">
	<path d="M 223 145 a 14 14 90 0 1 14 14 V 170 h -100 V 159 a 14 14 90 0 1 14 -14" fill="#fdae61" stroke="#fdae61" stroke-width="0"/>
	<path d="M 237 170.0 v 11 a 14 14 90 0 1 -14 14 H 151 a 14 14 90 0 1 -14 -14 V 170.0 H 100" fill="#fee090" stroke="#fee090" stroke-width="0"/>
	<rect x="137" y="145" width="100" height="50" fill="none" rx="14" stroke="#f46d43" stroke-width="2"/>
	<line x1="137" y1="170" x2="237" y2="170" stroke="#f46d43" stroke-width="1"/>
	<text x="144" y="162.7" fill="#000000" font-family="Verdana" font-size="12">INTERPRETER</text>
</g>

<!-- Association AVOIR_GENRE -->
<line x1="56" y1="60" x2="187" y2="60" stroke="#f46d43" stroke-width="2"/>
<text x="108" y="52.0" fill="#4575b4" font-family="Verdana" font-size="12">1,N</text>
<line x1="309" y1="170" x2="187" y2="60" stroke="#f46d43" stroke-width="2"/>
<text x="279.718273173" y="137" fill="#4575b4" font-family="Verdana" font-size="12">0,N</text>
<g id="association-AVOIR_GENRE">
	<path d="M 225 35 a 14 14 90 0 1 14 14 V 60 h -104 V 49 a 14 14 90 0 1 14 -14" fill="#fdae61" stroke="#fdae61" stroke-width="0"/>
	<path d="M 239 60.0 v 11 a 14 14 90 0 1 -14 14 H 149 a 14 14 90 0 1 -14 -14 V 60.0 H 104" fill="#fee090" stroke="#fee090" stroke-width="0"/>
	<rect x="135" y="35" width="104" height="50" fill="none" rx="14" stroke="#f46d43" stroke-width="2"/>
	<line x1="135" y1="60" x2="239" y2="60" stroke="#f46d43" stroke-width="1"/>
	<text x="142" y="52.7" fill="#000000" font-family="Verdana" font-size="12">AVOIR_GENRE</text>
</g>

<!-- Entity ALBUM -->
<g id="entity-ALBUM">
	<g id="frame-ALBUM">
		<rect x="9" y="9" width="94" height="25" fill="#abd9e9" stroke="#abd9e9" stroke-width="0"/>
		<rect x="9" y="34.0" width="94" height="77" fill="#e0f3f8" stroke="#e0f3f8" stroke-width="0"/>
		<rect x="9" y="9" width="94" height="102" fill="none" stroke="#74add1" stroke-width="2"/>
		<line x1="9" y1="34" x2="103" y2="34" stroke="#74add1" stroke-width="1"/>
	</g>
	<text x="34" y="26.7" fill="#000000" font-family="Verdana" font-size="12">ALBUM</text>
	<text x="14" y="51.7" fill="#000000" font-family="Verdana" font-size="12">id_album</text>
	<line x1="14" y1="54" x2="71" y2="54" stroke="#000000" stroke-width="1"/>
	<text x="14" y="68.8" fill="#000000" font-family="Verdana" font-size="12">titre_album</text>
	<text x="14" y="85.8" fill="#000000" font-family="Verdana" font-size="12">annee_album</text>
	<text x="14" y="102.8" fill="#000000" font-family="Verdana" font-size="12">img_album</text>
</g>

<!-- Entity ARTISTE -->
<g id="entity-ARTISTE">
	<g id="frame-ARTISTE">
		<rect x="14" y="136" width="84" height="25" fill="#abd9e9" stroke="#abd9e9" stroke-width="0"/>
		<rect x="14" y="161.0" width="84" height="43" fill="#e0f3f8" stroke="#e0f3f8" stroke-width="0"/>
		<rect x="14" y="136" width="84" height="68" fill="none" stroke="#74add1" stroke-width="2"/>
		<line x1="14" y1="161" x2="98" y2="161" stroke="#74add1" stroke-width="1"/>
	</g>
	<text x="29" y="153.7" fill="#000000" font-family="Verdana" font-size="12">ARTISTE</text>
	<text x="19" y="178.8" fill="#000000" font-family="Verdana" font-size="12">id_artiste</text>
	<line x1="19" y1="181" x2="77" y2="181" stroke="#000000" stroke-width="1"/>
	<text x="19" y="195.8" fill="#000000" font-family="Verdana" font-size="12">nom_artiste</text>
</g>

<!-- Entity GENRE -->
<g id="entity-GENRE">
	<g id="frame-GENRE">
		<rect x="269" y="145" width="80" height="25" fill="#abd9e9" stroke="#abd9e9" stroke-width="0"/>
		<rect x="269" y="170.0" width="80" height="25" fill="#e0f3f8" stroke="#e0f3f8" stroke-width="0"/>
		<rect x="269" y="145" width="80" height="50" fill="none" stroke="#74add1" stroke-width="2"/>
		<line x1="269" y1="170" x2="349" y2="170" stroke="#74add1" stroke-width="1"/>
	</g>
	<text x="287" y="162.7" fill="#000000" font-family="Verdana" font-size="12">GENRE</text>
	<text x="274" y="187.8" fill="#000000" font-family="Verdana" font-size="12">nom_genre</text>
	<line x1="274" y1="190" x2="344" y2="190" stroke="#000000" stroke-width="1"/>
</g>
</svg>